<?xml version="1.0" encoding="utf-8"?>
<!-- Generator: Adobe Illustrator 22.1.0, SVG Export Plug-In . SVG Version: 6.00 Build 0)  -->
<svg version="1.1" xmlns="http://www.w3.org/2000/svg" xmlns:xlink="http://www.w3.org/1999/xlink" x="0px" y="0px"
	 viewBox="0 0 80 80" style="enable-background:new 0 0 80 80;" xml:space="preserve">
<style type="text/css">
	.st0{fill:#B0B1B3;}
	.st1{clip-path:url(#SVGID_2_);fill:#B0B1B3;}
	.st2{fill:#D40000;}
	.st3{fill:none;stroke:#B0B1B3;stroke-width:2;stroke-linecap:round;stroke-miterlimit:10;}
	.st4{fill:#F9F9F9;}
	.st5{fill:#1A1A1A;}
</style>
<path class="st0" d="M44.7,38.1c0,0,0.5-4.9-12.6-5.5L28.3,32c0,0,3.3,11.5,13.1,9.9C41.4,41.9,44.7,41.4,44.7,38.1z"/>
<g>
	<g>
		<path id="XMLID_1_" class="st0" d="M56.8,35.3c0,0-0.5-7.7-8.2-7.7c0,0-4.9-0.5-7.7,2.7c0,0-8.8,14.8-18.6,17
			c0,0,7.7,7.7,18.1,7.1C40.3,54.5,56.8,53.9,56.8,35.3z"/>
	</g>
	<g>
		<defs>
			<path id="SVGID_1_" d="M56.8,35.3c0,0-0.5-7.7-8.2-7.7c0,0-4.9-0.5-7.7,2.7c0,0-8.8,14.8-18.6,17c0,0,7.7,7.7,18.1,7.1
				C40.3,54.5,56.8,53.9,56.8,35.3z"/>
		</defs>
		<use xlink:href="#SVGID_1_"  style="overflow:visible;fill:#B0B1B3;"/>
		<clipPath id="SVGID_2_">
			<use xlink:href="#SVGID_1_"  style="overflow:visible;"/>
		</clipPath>
		<path class="st1" d="M57.1,40.8c0,0-9,1.2-18.1-6.6c0,0,0,0-0.6-0.6c0,0-1.2-1.8-1.2-3.6c0,0,0-1.8-5.4-1.2c0,0-2.4,1.8-4.2,0.6
			c0,0-1.2-1.8-1.2-2.4l1.2-1.2l1.2,2.4c0,0,0.6,0.6,1.8,0.6c0,0,3.6-1.8,6-1.2l1.8,0.6c0,0,0.6-1.2-1.8-1.2c0,0-1.8,0-2.4-0.6
			c0,0-1.2-1.8-1.2-2.4h1.2c0,0,0.6,1.8,1.2,1.8s4.8,0.6,4.8,1.2c0,0,1.2,2.4,0,4.2c0,0-0.6,0,0.6,0.6L57.1,33
			C57.1,32.9,58.9,35.4,57.1,40.8z"/>
	</g>
</g>
<polygon class="st0" points="56.9,37.3 59.1,37.9 56.9,39 58,39.6 56.3,40.2 56.3,37.3 "/>
<path class="st2" d="M56.2,40.8c0,0-8.5,1.1-17.1-6.3c0,0,0,0-0.6-0.6c0,0-1.1-1.7-1.1-3.4c0,0,0-1.7-5.1-1.1c0,0-2.3,1.7-4,0.6
	c0,0-1.1-1.7-1.1-2.3l1.1-1.1l1.1,2.3c0,0,0.6,0.6,1.7,0.6c0,0,3.4-1.7,5.7-1.1l1.7,0.6c0,0,0.6-1.1-1.7-1.1c0,0-1.7,0-2.3-0.6
	c0,0-1.1-1.7-1.1-2.3h1.1c0,0,0.6,1.7,1.1,1.7c0.6,0,4.5,0.6,4.5,1.1c0,0,1.1,2.3,0,4c0,0-0.6,0,0.6,0.6L56,33.5
	C56.2,33.5,57.9,35.7,56.2,40.8z"/>
<g>
	<path class="st0" d="M40.6,67.7c-15.7,0-28.5-12.8-28.5-28.5s12.8-28.5,28.5-28.5s28.5,12.8,28.5,28.5S56.3,67.7,40.6,67.7z
		 M40.6,12.8c-14.6,0-26.5,11.9-26.5,26.5S26,65.8,40.6,65.8s26.5-11.9,26.5-26.5C67.1,24.6,55.2,12.8,40.6,12.8z"/>
</g>
<line class="st3" x1="70.7" y1="39.2" x2="64.8" y2="39.2"/>
<line class="st3" x1="15.8" y1="39.2" x2="9.8" y2="39.2"/>
<line class="st3" x1="40.6" y1="70.2" x2="40.6" y2="64.2"/>
<line class="st3" x1="40.6" y1="15.2" x2="40.6" y2="9.3"/>
<path class="st0" d="M40.3,40.3c0,0,0.5-4.9-12.6-5.5l-3.8-0.5c0,0,3.3,11.5,13.1,9.9C37.1,44.1,40.3,43.5,40.3,40.3z"/>
<ellipse transform="matrix(0.5331 -0.846 0.846 0.5331 -5.7325 62.5995)" class="st4" cx="53.9" cy="36.5" rx="1.6" ry="2"/>
<path class="st5" d="M55.3,37c-0.3,0-0.6-0.2-0.6-0.6c0-0.3,0.2-0.5,0.5-0.5c-0.1-0.1-0.2-0.1-0.3-0.2c-0.7-0.4-1.5-0.3-1.8,0.2
	s-0.1,1.3,0.6,1.7c0.7,0.4,1.5,0.3,1.8-0.2c0.1-0.2,0.2-0.4,0.1-0.6C55.6,37,55.5,37,55.3,37z"/>
<path class="st5" d="M52.8,34c0,0,2.4,1.5,2.9,2c0,0,0.4,0.1,0.4-0.3l-3.2-2.3C52.8,33.4,52.3,33.5,52.8,34z"/>
</svg>
