<?xml version="1.0" encoding="utf-8"?>
<!-- Generator: Adobe Illustrator 22.1.0, SVG Export Plug-In . SVG Version: 6.00 Build 0)  -->
<svg version="1.1" xmlns="http://www.w3.org/2000/svg" xmlns:xlink="http://www.w3.org/1999/xlink" x="0px" y="0px"
	 viewBox="0 0 80 80" style="enable-background:new 0 0 80 80;" xml:space="preserve">
<style type="text/css">
	.st0{fill:#1F1818;}
	.st1{clip-path:url(#SVGID_2_);fill:#1F1818;}
	.st2{fill:#D40000;}
	.st3{fill:none;stroke:#1F1818;stroke-width:2;stroke-linecap:round;stroke-miterlimit:10;}
	.st4{fill:#F9F9F9;}
	.st5{fill:#1A1A1A;}
</style>
<path class="st0" d="M43.7,39.1c0,0,0.5-4.9-12.6-5.5L27.3,33c0,0,3.3,11.5,13.1,9.9C40.4,42.9,43.7,42.4,43.7,39.1z"/>
<g>
	<g>
		<path id="XMLID_1_" class="st0" d="M55.8,36.3c0,0-0.5-7.7-8.2-7.7c0,0-4.9-0.5-7.7,2.7c0,0-8.8,14.8-18.6,17
			c0,0,7.7,7.7,18.1,7.1C39.3,55.5,55.8,54.9,55.8,36.3z"/>
	</g>
	<g>
		<defs>
			<path id="SVGID_1_" d="M55.8,36.3c0,0-0.5-7.7-8.2-7.7c0,0-4.9-0.5-7.7,2.7c0,0-8.8,14.8-18.6,17c0,0,7.7,7.7,18.1,7.1
				C39.3,55.5,55.8,54.9,55.8,36.3z"/>
		</defs>
		<clipPath id="SVGID_2_">
			<use xlink:href="#SVGID_1_"  style="overflow:visible;"/>
		</clipPath>
		<path class="st1" d="M56.1,41.8c0,0-9,1.2-18.1-6.6c0,0,0,0-0.6-0.6c0,0-1.2-1.8-1.2-3.6c0,0,0-1.8-5.4-1.2c0,0-2.4,1.8-4.2,0.6
			c0,0-1.2-1.8-1.2-2.4l1.2-1.2l1.2,2.4c0,0,0.6,0.6,1.8,0.6c0,0,3.6-1.8,6-1.2l1.8,0.6c0,0,0.6-1.2-1.8-1.2c0,0-1.8,0-2.4-0.6
			c0,0-1.2-1.8-1.2-2.4h1.2c0,0,0.6,1.8,1.2,1.8s4.8,0.6,4.8,1.2c0,0,1.2,2.4,0,4.2c0,0-0.6,0,0.6,0.6L56.1,34
			C56.1,33.9,57.9,36.4,56.1,41.8z"/>
	</g>
</g>
<polygon class="st0" points="55.9,38.3 58.1,38.9 55.9,40 57,40.6 55.3,41.2 55.3,38.3 "/>
<path class="st2" d="M55.2,41.8c0,0-8.5,1.1-17.1-6.3c0,0,0,0-0.6-0.6c0,0-1.1-1.7-1.1-3.4c0,0,0-1.7-5.1-1.1c0,0-2.3,1.7-4,0.6
	c0,0-1.1-1.7-1.1-2.3l1.1-1.1l1.1,2.3c0,0,0.6,0.6,1.7,0.6c0,0,3.4-1.7,5.7-1.1l1.7,0.6c0,0,0.6-1.1-1.7-1.1c0,0-1.7,0-2.3-0.6
	c0,0-1.1-1.7-1.1-2.3h1.1c0,0,0.6,1.7,1.1,1.7c0.6,0,4.5,0.6,4.5,1.1c0,0,1.1,2.3,0,4c0,0-0.6,0,0.6,0.6L55,34.5
	C55.2,34.5,56.9,36.7,55.2,41.8z"/>
<g>
	<g>
		<path class="st0" d="M39.6,68.7c-15.7,0-28.5-12.8-28.5-28.5s12.8-28.5,28.5-28.5s28.5,12.8,28.5,28.5S55.3,68.7,39.6,68.7z
			 M39.6,13.8c-14.6,0-26.5,11.9-26.5,26.5S25,66.8,39.6,66.8s26.5-11.9,26.5-26.5C66.1,25.6,54.2,13.8,39.6,13.8z"/>
	</g>
	<line class="st3" x1="69.7" y1="40.2" x2="63.8" y2="40.2"/>
	<line class="st3" x1="14.8" y1="40.2" x2="8.8" y2="40.2"/>
	<line class="st3" x1="39.6" y1="71.2" x2="39.6" y2="65.2"/>
	<line class="st3" x1="39.6" y1="16.2" x2="39.6" y2="10.3"/>
</g>
<path class="st0" d="M39.3,41.3c0,0,0.5-4.9-12.6-5.5l-3.8-0.5c0,0,3.3,11.5,13.1,9.9C36.1,45.1,39.3,44.5,39.3,41.3z"/>
<ellipse transform="matrix(0.5331 -0.846 0.846 0.5331 -7.0454 62.2203)" class="st4" cx="52.9" cy="37.5" rx="1.6" ry="2"/>
<path class="st5" d="M54.3,38c-0.3,0-0.6-0.2-0.6-0.6c0-0.3,0.2-0.5,0.5-0.5c-0.1-0.1-0.2-0.1-0.3-0.2c-0.7-0.4-1.5-0.3-1.8,0.2
	s-0.1,1.3,0.6,1.7c0.7,0.4,1.5,0.3,1.8-0.2c0.1-0.2,0.2-0.4,0.1-0.6C54.6,38,54.5,38,54.3,38z"/>
<path class="st5" d="M51.8,35c0,0,2.4,1.5,2.9,2c0,0,0.4,0.1,0.4-0.3l-3.2-2.3C51.8,34.4,51.3,34.5,51.8,35z"/>
</svg>
